<?xml version="1.0" encoding="UTF-8"?>
<svg id="Layer_2" data-name="Layer 2" xmlns="http://www.w3.org/2000/svg" viewBox="0 0 115.66 106.17">
    <defs>
        <style>
            .cls-1 {
            stroke: #ed1c24;
            stroke-linecap: square;
            stroke-linejoin: round;
            stroke-width: .63px;
            }

            .cls-1, .cls-2 {
            fill: none;
            }

            .cls-3 {
            fill: #ed1c24;
            }

            .cls-4 {
            fill: #231f20;
            }
        </style>
    </defs>
    <g id="Layer_1-2" data-name="Layer 1">
        <g>
            <path class="cls-3"
                  d="M14.83,101.63c12.7,0,25.39,0,38.09,0L4.09,7.91V106.17H0V.19H4.77L55.78,98.15V.19h4.09V106.17H16.48c-.55-1.51-1.1-3.03-1.65-4.54Z"/>
            <path class="cls-3"
                  d="M105.02,4.73H62.74l48.83,93.72V.19h4.09V106.17h-4.77L59.87,8.21V106.17h-4.09V.19h49.24V4.73Z"/>
            <rect class="cls-2" x="45.2" width="25.23" height="106.17"/>
            <path class="cls-1"
                  d="M56.34,98.64l1.79-.18,.89-.09-.9-.09-2.38-.18,6.2-.09-4.54-.09,5.07-.09,.23-.27-6.61-.18,3.52-.27,2.84-.09-3.29-.09,1.28-.18-3.1-.09,.93-.09,1.94-.09-.49-.27-3.12-.09,2.45-.09-3.53-.09-.27-.09,1.1-.09,2.8-.09,.66-.18-5.21-.09,2.74-.09-.27-.27,2.89-.18-5.61-.09,1.72-.09,3.68-.09,.27-.09-4.38-.09,1.25-.09,4.01-.09-5.46-.09,5.98-.09-.76-.09-2.96-.09,.44-.09-2.97-.09-.25-.09,2.05-.09-1.86-.18,5.73-.09-2.3-.09,2.08-.09-2.21-.09,1.89-.09-2.12-.09-2.98-.09-2.09-.09,4.7-.09,4.74-.18,4.3-.09-4.41-.09-2.81-.09-1.31-.09-.23-.09,.24-.09,2.12-.09-2.79-.09-3.01-.18,6.97-.09-2.89-.09-.8-.09,2.63-.09,.17-.09-3.26-.09-1.73-.09,.44-.09,2.77-.09,2.07-.09-.15-.09,.61-.09-2.86-.18,.38-.09-1.5-.09,4.74-.09-2.29-.09-4.08-.09,1.96-.09-2.29-.09,3.99-.09,.03-.09-1.44-.09,1.32-.09,.82-.09-5.95-.09,3.52-.09,2.38-.09-1.73-.09,4.86-.09-5.26-.09,.13-.09,1.8-.09-.19-.09,.85-.09-3.09-.09,5.69-.09-6.33-.09,1.64-.18,.33-.09-2.36-.09,.95-.09,2.98-.09,.94-.09-5.7-.09,6.86-.09-2.18-.09-7.88-.09,5.56-.09-7.42-.09,10.92-.09-3.23-.09,5.14-.09-3.5-.09-8.16-.09,13.26-.09-10.42-.09-1.52-.09,2.05-.09,6.69-.09-5.22-.09,6.02-.09-8.96-.09v-.09s9.14-.09,9.14-.09l-3.82-.09,.65-.09,5.64-.09-9.05-.09,4-.09-5.87-.09,6.71-.09-1.46-.09-6.52-.09,1.2-.09,4.86-.09-4.62-.09-.26-.09,3.97-.09-6.81-.09,7.1-.09,2.2-.09-.06-.09-4.77-.09,5.22-.09-1.77-.09-3.14-.09,.11-.09-1.39-.09,1.62-.09,3.34-.09-5.8-.09,2.4-.09,8.82-.09-3.58-.09-2.35-.09-3.21-.09,7.63-.09-9.49-.09,4.86-.09-2.22-.09,12.89-.09-12.51-.09,1.82-.09-3.38-.09,2.15-.09-.13-.09-1.36-.18-1.64-.09,4.67-.09-1.48-.09,2.82-.09-6.65-.09,7.05-.09,.11-.09-9.27-.09,2.83-.09,9.47-.09-10.28-.09,.49-.09,8.25-.09-4.45-.09-2.59-.09-.02-.09,5.95-.09-8.41-.18-.64-.09,1.35-.09,.63-.09,2.74-.09-.32-.09,3.19-.09-3.59-.09,3.57-.09,2.54-.09-6.09-.09-.73-.09-2.33-.09,1.72-.09-3.97-.09,5.96-.09,4.17-.09-4.49-.09-1.38-.09,.48-.09,1.13-.09,1.54-.09,2.7-.09-1.56-.09-3.77-.09v-.09s2.68-.09,2.68-.09l-3.91-.09,4.64-.09-1.38-.09,.68-.09,.39-.09-2.12-.09-3.42-.09,4.81-.09-.7-.09-3.03-.09-.23-.09,.29-.09-1-.09,2.89-.09,.4-.09,2.15-.09,1.77-.18-1.48-.09-3.81-.09,3.87-.09-3.08-.09-2.2-.09,6.3-.09-3.03-.09-.87-.09,4.2-.09-3.52-.09-6.4-.09,10.95-.09-5.45-.18-.44-.09-1.34-.09,6.42-.09,2.01-.09-8.23-.09,8.65-.09-5.78-.09,1.55-.09-3.53-.09-.14-.09,4-.18-2.07-.18-4.4-.09,7.11-.09,.76-.09-4.13-.09,3.3-.18-2.78-.09-7.05-.09,9.49-.09-2.39-.09,4.48-.09-1.74-.09-4.87-.09,7.08-.09-2.27-.18,1.23-.09-4.1-.09,2.45-.09-2.43-.09-4.41-.09,.83-.09,1.12-.09,.6-.09,.14-.09,4.99-.09-4.01-.09,3.7-.09-8.52-.09,11.23-.09-2.56-.09,.42-.09-5.99-.09-1.52-.09,5.44-.09-2.93-.09,1.99-.18,2.12-.09-2.63-.09,6.45-.09-5.1-.09-.55-.09,2.1-.09-6.82-.09,3.57-.09,1.43-.09,2.12-.09-2.43-.09,2.72-.09-1.95-.09-1.42-.09,3.55-.09-3.74-.09,4.26-.09-7.33-.09,3.2-.09,4.28-.09-5.62-.09,3.69-.09-1.98-.09-.86-.09-1.91-.09,2.56-.09-4.35-.09,4.86-.09,1.67-.09-2.56-.09,2.31-.09-7.01-.09,1.13-.09,.07-.09,1.77-.09,6.04-.09-3.97-.09,.69-.09v-.09s3.44-.09,3.44-.09l-.28-.09-4.89-.09,5.08-.09,.05-.09-4.16-.18,7.75-.09-11-.09,2.56-.09,1.4-.09-1.84-.09,1.24-.09-2.8-.09-5.14-.09,4.43-.09-3.77-.09,9.18-.09-.71-.09,3.31-.09-5.95-.18,3.11-.09,4.83-.09-7.71-.09,5.74-.09-6.17-.09,.88-.09,2.61-.09-3.42-.09,4.29-.09,1.95-.09-1.66-.09-2.51-.09-3.37-.09,4.92-.09-2.91-.09,1.85-.09,3.47-.09-3.21-.09-1.87-.09,2.29-.09-4.44-.09,7.25-.09-8.09-.09,4.45-.18,.53-.09,2.22-.09-4.2-.09-2.73-.09,7.36-.09-.24-.09-1.88-.09-2.94-.09,.27-.09-1.24-.09-2.01-.09,3.75-.09-4.56-.09,6.6-.09-3.2-.09,4.87-.09-8.68-.09,2.26-.09,.97-.09,.56-.09,5.41-.09,1.67-.09-4.1-.18-3.27-.09-.54-.09,3.35-.09,1.03-.09,.25-.09,.58-.09-6.55-.09,6.71-.09-7.58-.09,10.2-.09-2.14-.09,1.46-.09-7.18-.09,.29-.09,7.91-.18-2.19-.09-10.65-.09,3.14-.09,1.41-.09,4.88-.09-.21-.09-.81-.09-5.68-.09,2.41-.09-.78-.09,6.2-.18,.43-.09-2.13-.09-3.47-.09,4.87-.09,.58-.09-4.63-.09,.94-.09-4.91-.09-.14-.09,11.61-.09-12.61-.09,5.2-.09-2.15-.09,4.57-.09,.76-.09,1.49-.09-.73-.09-4.12-.09,.75-.09,2.2-.09-3.35-.09-4.82-.09-.13-.09,6.08-.09-8.99-.09,8.43-.09-6.2-.09-1.25-.09,12.05-.09-4.69-.09,3.53-.09-5.35-.09,2.5-.09-6.47-.09,3.59-.09,3.32-.18,4.1-.09-5.14-.09-3.39-.09,9.16-.09-5.45-.09-.66-.09,4.28-.09-3.67-.09-1-.09-1.44-.09,.89-.09-2.87-.09,5.93-.09,.41-.09-4.55-.09,3.25-.09,.63-.09-5.25-.09,4.52-.09-1.13-.09,5.54-.09-4.05-.09-1.43-.09,.74-.09-3.75-.09,6.76-.09-8.29-.09,8.35-.09,1.92-.09-8.5-.09,4.13-.09-4.03-.09,4.6-.09,1.87-.09-5.29-.09,4-.09-4.93-.09-.02-.09-2.84-.09,2.82-.09,9.47-.18-4.35-.18-6.56-.18,5.17-.09,1.52-.09-1.14-.09-5.5-.09,3.75-.09-4.65-.09,7.98-.09-3.55-.09-2.39-.09,6.24-.09-3.47-.09-.69-.09,5.29-.09-2.23-.09-.73-.09-4.78-.09,6.51-.09-4.58-.09-.39-.09,5.42-.09-2.85-.09-.93-.09,4.76-.09-7.28-.09,4.57-.09-3.3-.09,4.56-.09,1.78-.09-6.27-.09,2.71-.09,.95-.09-3.19-.09,3.13-.09-5.66-.09,6.97-.09,.54-.09-2.73-.09-5.15-.09,3.88-.09,5.03-.09-5.42-.09-.37-.09,4.79-.09-6.33-.09,5.32-.09,.66-.09-5.8-.09-2.88-.09,12.47-.09-10.36-.18,7.8-.09-6.21-.09,3.03-.09-.47-.09-.68-.09,6.06-.09-6.51-.09-2.14-.09,.05-.09,6.15-.09-1.71-.09-4.89-.18,3.74-.09-1.44-.09,1.43-.09-1.58-.09-3.94-.09,5.85-.09-7.9-.09,4.1-.09v-.09s4.95-.09,4.95-.09l-2.83-.09,2.11-.09-3.65-.18,.3-.09,.45-.09,4.42-.18,.14-.09-6.13-.09,3.79-.09,2.84-.09-.52-.09-2.97-.09-4.15-.09,11.1-.09-7.5-.09-2.83-.09,4.31-.09,1.99-.18,3.09-.09-7.53-.09,1.97-.09-.13-.09-.87-.09,1.02-.09,2.86-.09-6.61-.09-.34-.09,.95-.09,8.54-.09-10.12-.09,4.97-.09,.75-.09,1.01-.09-4.78-.09,7.7-.09-7.49-.09,.35-.09,1.83-.09,4.08-.09-5.93-.09,.41-.09-.08-.09,4.17-.09-.55-.09-5.28-.09,7.18-.09,.42-.09-10.86-.09,4.97-.09,1.84-.09-2.66-.09,3.42-.18-.09-.09-1.1-.09-3.03-.09,3.56-.09,1.55-.09,1.04-.09-2.32-.09-5.41-.09,10.37-.09-4.02-.09,3.16-.18-8.69-.09,5.34-.09,3.97-.09-5.71-.09,.85-.09-.29-.09,7.86-.09-10.96-.09-1.7-.09,6.29-.09-2.74-.09,4.27-.09-.99-.09-1.4-.09,2.53-.09-4.29-.09,3.37-.09-.31-.09-2.91-.09,.81-.09-1.51-.09,3.53-.18-1.51-.09-2.42-.09-3.14-.09,5.08-.09,.96-.09-.16-.09-.11-.09-.81-.09,1.06-.09-1.76-.09-.14-.09-2.66-.09,6.64-.09-6.63-.09,3.02-.09-4.65-.09,4.86-.09-3.43-.09,4.41-.09-2.18-.09,3.92-.09-.74-.09-3.1-.09,4.03-.09,.84-.09-2.76-.09-4.71-.09,2.01-.09,3.75-.09-2.46-.09-1.06-.09,7.21-.09-7.27-.09,3.38-.09-4.55-.09,2.26-.09-5.41-.09,12-.09,1-.09,.18-.09-6.78-.09,2.21-.09-1.23-.09-4.43-.09,3.37-.09-1.08-.09,2.63-.09-5.3-.09,4.32-.09,1.52-.09-2.67-.09,4.23-.09-1.41-.09-4.43-.09v-.09s.85-.09,.85-.09l.42-.09,7.83-.09-12.74-.09-.96-.09,3.63-.09,2.39-.09,4.59-.09-10.37-.18,9.51-.09-5.48-.09,5.42-.09-5.52-.09-1.99-.09,7.27-.09-2.01-.09-.24-.09-5.04-.09,4.05-.18-2.2-.09,3.13-.09-3.39-.09,4.68-.09-2.47-.09,1.13-.09-3.34-.09,.32-.09,6.04-.09-8.43-.18,5.47-.18-.63-.09,7.62-.09-9.03-.09-1.16-.09,4.37-.09,1.12-.18-6.52-.09-1.34-.09,10.91-.18-8.05-.09-.84-.09,2.53-.18-6.91-.09,4.75-.09-.57-.09,1.57-.09,3.01-.09-.51-.09,.17-.09,6.41-.09-14.45-.09,7.87-.09-6.18-.09,9.68-.09-7.17-.09,2.61-.09-3.46-.09,6.09-.18,5.06-.09-8.05-.09-.99-.09,2.77-.09-3.66-.09,5.58-.09-7.24-.09,2.4-.09,1.6-.09-6.81-.09,6.38-.09,1.9-.09-5.38-.09,3.09-.09-3.7-.09,5.07-.09-7.65-.09,14.3-.09-7.81-.18-1.16-.09,.64-.09,3.06-.09-1.58-.09-.83-.09-3.65-.09,5.21-.09-1.58-.09,4.31-.09-9.78-.09-.06-.09,4.11-.18-.85-.09,3.61-.09,.21-.09-2.35-.09,.89-.09-2.42-.09,6.49-.09-5.33-.09,4.6-.09-5.75-.09-1.78-.09,2.27-.09-.03-.09,1.17-.09-.14-.09,4.75-.09-4.83-.09,4.32-.09-9.26-.09,12.45-.09-9.94-.09,5.63-.09-6.14-.09,7.6-.27-6.27-.09,2.2-.09-1.08-.09,1.29-.09,4.14-.09-5.15-.09,.84-.09,6.09-.09-2.33-.09-1.55-.09-4.33-.18,6.41-.09-1.02-.09-4.24-.09,.15-.09-3.69-.09,7.71-.09-2.13-.09,3.03-.09-.56-.09-5.47-.09,5.23-.09-7.21-.09,6.92-.09-5.49-.09,7.98-.09-7.69-.09,4.35-.09-3.61-.18-3.8-.09,6.97-.09-3.35-.09,.73-.09,4.78-.09,.46-.09-9.26-.09,5.71-.09-2.36-.18,1.62-.09,.68-.09,2.73-.09-1.45-.09-.97-.09,.78-.09,.07-.09-3.76-.18,3.5-.09-4.42-.09,7.25-.09-1.25-.09,1.68-.09-11.38-.18,4.45-.09,.06-.09-1.45-.09,4.6-.09-1.4-.09,3.96-.09-2.03-.09-5.63-.09,.85-.09,1.19-.09,4.33-.09-2.18-.09,2.6-.18-4.21-.09,1.29-.09-2.06-.09,.78-.09,.27-.09-1.61-.09,4.23-.09,1.15-.09,.36-.09-6.95-.09-.76-.09,6.38-.09-2.59-.18-1.96-.09,4.55-.18,.11-.09-4.6-.09,4.47-.18-.99-.09-2.3-.09,2.84-.54-5-.09-1.63-.09,5.71-.09-1.23-.18-1.26-.09,4.65-.09-3.18-.09,1.43-.09-.93-.09-.09-.09,3.13-.09"/>
            <path class="cls-4" d="M14.97,101.64h55.64L38.55,13.5,4.84,106.17H0L38.55,.19l38.55,105.98H14.97v-4.54Z"/>
            <path class="cls-4"
                  d="M55.78,.19h59.87l-38.55,105.98L38.55,.19h4.84l33.71,92.68L109.15,4.72c-17.79,.03-35.58,.07-53.37,.1V.19Z"/>
        </g>
    </g>
</svg>