<?xml version="1.0" encoding="UTF-8"?>
<svg id="Layer_2" data-name="Layer 2" xmlns="http://www.w3.org/2000/svg" viewBox="0 0 546.08 106.17">
  <defs>
    <style>
      .cls-1 {
        fill: #fff;
      }

      .cls-2 {
        stroke: #ed1c24;
        stroke-linecap: square;
        stroke-linejoin: round;
        stroke-width: .63px;
      }

      .cls-2, .cls-3 {
        fill: none;
      }

      .cls-4 {
        fill: #ed1c24;
      }
    </style>
  </defs>
  <g id="Layer_1-2" data-name="Layer 1">
    <g>
      <g>
        <path class="cls-4" d="M445.39,101.64c12.65,0,25.3,0,37.95,0L434.52,7.91V106.17h-4.09V.19h4.77l51.01,97.96V.19h4.09V106.17h-43.39c-.51-1.51-1.01-3.02-1.52-4.54Z"/>
        <path class="cls-4" d="M535.44,4.73h-42.28l48.83,93.72V.19h4.09V106.17h-4.77L490.3,8.21V106.17h-4.09V.19h49.24V4.73Z"/>
        <rect class="cls-3" x="475.63" width="25.23" height="106.17"/>
        <path class="cls-2" d="M486.77,98.64l1.79-.18,.89-.09-.9-.09-2.38-.18,6.2-.09-4.54-.09,5.07-.09,.23-.27-6.61-.18,3.52-.27,2.84-.09-3.29-.09,1.28-.18-3.1-.09,.93-.09,1.94-.09-.49-.27-3.12-.09,2.45-.09-3.53-.09-.27-.09,1.1-.09,2.8-.09,.66-.18-5.21-.09,2.74-.09-.27-.27,2.89-.18-5.61-.09,1.72-.09,3.68-.09,.27-.09-4.38-.09,1.25-.09,4.01-.09-5.46-.09,5.98-.09-.76-.09-2.96-.09,.44-.09-2.97-.09-.25-.09,2.05-.09-1.86-.18,5.73-.09-2.3-.09,2.08-.09-2.21-.09,1.89-.09-2.12-.09-2.98-.09-2.09-.09,4.7-.09,4.74-.18,4.3-.09-4.41-.09-2.81-.09-1.31-.09-.23-.09,.24-.09,2.12-.09-2.79-.09-3.01-.18,6.97-.09-2.89-.09-.8-.09,2.63-.09,.17-.09-3.26-.09-1.73-.09,.44-.09,2.77-.09,2.07-.09-.15-.09,.61-.09-2.86-.18,.38-.09-1.5-.09,4.74-.09-2.29-.09-4.08-.09,1.96-.09-2.29-.09,3.99-.09,.03-.09-1.44-.09,1.32-.09,.82-.09-5.95-.09,3.52-.09,2.38-.09-1.73-.09,4.86-.09-5.26-.09,.13-.09,1.8-.09-.19-.09,.85-.09-3.09-.09,5.69-.09-6.33-.09,1.64-.18,.33-.09-2.36-.09,.95-.09,2.98-.09,.94-.09-5.7-.09,6.86-.09-2.18-.09-7.88-.09,5.56-.09-7.42-.09,10.92-.09-3.23-.09,5.14-.09-3.5-.09-8.16-.09,13.26-.09-10.42-.09-1.52-.09,2.05-.09,6.69-.09-5.22-.09,6.02-.09-8.96-.09v-.09s9.14-.09,9.14-.09l-3.82-.09,.65-.09,5.64-.09-9.05-.09,4-.09-5.87-.09,6.71-.09-1.46-.09-6.52-.09,1.2-.09,4.86-.09-4.62-.09-.26-.09,3.97-.09-6.81-.09,7.1-.09,2.2-.09-.06-.09-4.77-.09,5.22-.09-1.77-.09-3.14-.09,.11-.09-1.39-.09,1.62-.09,3.34-.09-5.8-.09,2.4-.09,8.82-.09-3.58-.09-2.35-.09-3.21-.09,7.63-.09-9.49-.09,4.86-.09-2.22-.09,12.89-.09-12.51-.09,1.82-.09-3.38-.09,2.15-.09-.13-.09-1.36-.18-1.64-.09,4.67-.09-1.48-.09,2.82-.09-6.65-.09,7.05-.09,.11-.09-9.27-.09,2.83-.09,9.47-.09-10.28-.09,.49-.09,8.25-.09-4.45-.09-2.59-.09-.02-.09,5.95-.09-8.41-.18-.64-.09,1.35-.09,.63-.09,2.74-.09-.32-.09,3.19-.09-3.59-.09,3.57-.09,2.54-.09-6.09-.09-.73-.09-2.33-.09,1.72-.09-3.97-.09,5.96-.09,4.17-.09-4.49-.09-1.38-.09,.48-.09,1.13-.09,1.54-.09,2.7-.09-1.56-.09-3.77-.09v-.09s2.68-.09,2.68-.09l-3.91-.09,4.64-.09-1.38-.09,.68-.09,.39-.09-2.12-.09-3.42-.09,4.81-.09-.7-.09-3.03-.09-.23-.09,.29-.09-1-.09,2.89-.09,.4-.09,2.15-.09,1.77-.18-1.48-.09-3.81-.09,3.87-.09-3.08-.09-2.2-.09,6.3-.09-3.03-.09-.87-.09,4.2-.09-3.52-.09-6.4-.09,10.95-.09-5.45-.18-.44-.09-1.34-.09,6.42-.09,2.01-.09-8.23-.09,8.65-.09-5.78-.09,1.55-.09-3.53-.09-.14-.09,4-.18-2.07-.18-4.4-.09,7.11-.09,.76-.09-4.13-.09,3.3-.18-2.78-.09-7.05-.09,9.49-.09-2.39-.09,4.48-.09-1.74-.09-4.87-.09,7.08-.09-2.27-.18,1.23-.09-4.1-.09,2.45-.09-2.43-.09-4.41-.09,.83-.09,1.12-.09,.6-.09,.14-.09,4.99-.09-4.01-.09,3.7-.09-8.52-.09,11.23-.09-2.56-.09,.42-.09-5.99-.09-1.52-.09,5.44-.09-2.93-.09,1.99-.18,2.12-.09-2.63-.09,6.45-.09-5.1-.09-.55-.09,2.1-.09-6.82-.09,3.57-.09,1.43-.09,2.12-.09-2.43-.09,2.72-.09-1.95-.09-1.42-.09,3.55-.09-3.74-.09,4.26-.09-7.33-.09,3.2-.09,4.28-.09-5.62-.09,3.69-.09-1.98-.09-.86-.09-1.91-.09,2.56-.09-4.35-.09,4.86-.09,1.67-.09-2.56-.09,2.31-.09-7.01-.09,1.13-.09,.07-.09,1.77-.09,6.04-.09-3.97-.09,.69-.09v-.09s3.44-.09,3.44-.09l-.28-.09-4.89-.09,5.08-.09,.05-.09-4.16-.18,7.75-.09-11-.09,2.56-.09,1.4-.09-1.84-.09,1.24-.09-2.8-.09-5.14-.09,4.43-.09-3.77-.09,9.18-.09-.71-.09,3.31-.09-5.95-.18,3.11-.09,4.83-.09-7.71-.09,5.74-.09-6.17-.09,.88-.09,2.61-.09-3.42-.09,4.29-.09,1.95-.09-1.66-.09-2.51-.09-3.37-.09,4.92-.09-2.91-.09,1.85-.09,3.47-.09-3.21-.09-1.87-.09,2.29-.09-4.44-.09,7.25-.09-8.09-.09,4.45-.18,.53-.09,2.22-.09-4.2-.09-2.73-.09,7.36-.09-.24-.09-1.88-.09-2.94-.09,.27-.09-1.24-.09-2.01-.09,3.75-.09-4.56-.09,6.6-.09-3.2-.09,4.87-.09-8.68-.09,2.26-.09,.97-.09,.56-.09,5.41-.09,1.67-.09-4.1-.18-3.27-.09-.54-.09,3.35-.09,1.03-.09,.25-.09,.58-.09-6.55-.09,6.71-.09-7.58-.09,10.2-.09-2.14-.09,1.46-.09-7.18-.09,.29-.09,7.91-.18-2.19-.09-10.65-.09,3.14-.09,1.41-.09,4.88-.09-.21-.09-.81-.09-5.68-.09,2.41-.09-.78-.09,6.2-.18,.43-.09-2.13-.09-3.47-.09,4.87-.09,.58-.09-4.63-.09,.94-.09-4.91-.09-.14-.09,11.61-.09-12.61-.09,5.2-.09-2.15-.09,4.57-.09,.76-.09,1.49-.09-.73-.09-4.12-.09,.75-.09,2.2-.09-3.35-.09-4.82-.09-.13-.09,6.08-.09-8.99-.09,8.43-.09-6.2-.09-1.25-.09,12.05-.09-4.69-.09,3.53-.09-5.35-.09,2.5-.09-6.47-.09,3.59-.09,3.32-.18,4.1-.09-5.14-.09-3.39-.09,9.16-.09-5.45-.09-.66-.09,4.28-.09-3.67-.09-1-.09-1.44-.09,.89-.09-2.87-.09,5.93-.09,.41-.09-4.55-.09,3.25-.09,.63-.09-5.25-.09,4.52-.09-1.13-.09,5.54-.09-4.05-.09-1.43-.09,.74-.09-3.75-.09,6.76-.09-8.29-.09,8.35-.09,1.92-.09-8.5-.09,4.13-.09-4.03-.09,4.6-.09,1.87-.09-5.29-.09,4-.09-4.93-.09-.02-.09-2.84-.09,2.82-.09,9.47-.18-4.35-.18-6.56-.18,5.17-.09,1.52-.09-1.14-.09-5.5-.09,3.75-.09-4.65-.09,7.98-.09-3.55-.09-2.39-.09,6.24-.09-3.47-.09-.69-.09,5.29-.09-2.23-.09-.73-.09-4.78-.09,6.51-.09-4.58-.09-.39-.09,5.42-.09-2.85-.09-.93-.09,4.76-.09-7.28-.09,4.57-.09-3.3-.09,4.56-.09,1.78-.09-6.27-.09,2.71-.09,.95-.09-3.19-.09,3.13-.09-5.66-.09,6.97-.09,.54-.09-2.73-.09-5.15-.09,3.88-.09,5.03-.09-5.42-.09-.37-.09,4.79-.09-6.33-.09,5.32-.09,.66-.09-5.8-.09-2.88-.09,12.47-.09-10.36-.18,7.8-.09-6.21-.09,3.03-.09-.47-.09-.68-.09,6.06-.09-6.51-.09-2.14-.09,.05-.09,6.15-.09-1.71-.09-4.89-.18,3.74-.09-1.44-.09,1.43-.09-1.58-.09-3.94-.09,5.85-.09-7.9-.09,4.1-.09v-.09s4.95-.09,4.95-.09l-2.83-.09,2.11-.09-3.65-.18,.3-.09,.45-.09,4.42-.18,.14-.09-6.13-.09,3.79-.09,2.84-.09-.52-.09-2.97-.09-4.15-.09,11.1-.09-7.5-.09-2.83-.09,4.31-.09,1.99-.18,3.09-.09-7.53-.09,1.97-.09-.13-.09-.87-.09,1.02-.09,2.86-.09-6.61-.09-.34-.09,.95-.09,8.54-.09-10.12-.09,4.97-.09,.75-.09,1.01-.09-4.78-.09,7.7-.09-7.49-.09,.35-.09,1.83-.09,4.08-.09-5.93-.09,.41-.09-.08-.09,4.17-.09-.55-.09-5.28-.09,7.18-.09,.42-.09-10.86-.09,4.97-.09,1.84-.09-2.66-.09,3.42-.18-.09-.09-1.1-.09-3.03-.09,3.56-.09,1.55-.09,1.04-.09-2.32-.09-5.41-.09,10.37-.09-4.02-.09,3.16-.18-8.69-.09,5.34-.09,3.97-.09-5.71-.09,.85-.09-.29-.09,7.86-.09-10.96-.09-1.7-.09,6.29-.09-2.74-.09,4.27-.09-.99-.09-1.4-.09,2.53-.09-4.29-.09,3.37-.09-.31-.09-2.91-.09,.81-.09-1.51-.09,3.53-.18-1.51-.09-2.42-.09-3.14-.09,5.08-.09,.96-.09-.16-.09-.11-.09-.81-.09,1.06-.09-1.76-.09-.14-.09-2.66-.09,6.64-.09-6.63-.09,3.02-.09-4.65-.09,4.86-.09-3.43-.09,4.41-.09-2.18-.09,3.92-.09-.74-.09-3.1-.09,4.03-.09,.84-.09-2.76-.09-4.71-.09,2.01-.09,3.75-.09-2.46-.09-1.06-.09,7.21-.09-7.27-.09,3.38-.09-4.55-.09,2.26-.09-5.41-.09,12-.09,1-.09,.18-.09-6.78-.09,2.21-.09-1.23-.09-4.43-.09,3.37-.09-1.08-.09,2.63-.09-5.3-.09,4.32-.09,1.52-.09-2.67-.09,4.23-.09-1.41-.09-4.43-.09v-.09s.85-.09,.85-.09l.42-.09,7.83-.09-12.74-.09-.96-.09,3.63-.09,2.39-.09,4.59-.09-10.37-.18,9.51-.09-5.48-.09,5.42-.09-5.52-.09-1.99-.09,7.27-.09-2.01-.09-.24-.09-5.04-.09,4.05-.18-2.2-.09,3.13-.09-3.39-.09,4.68-.09-2.47-.09,1.13-.09-3.34-.09,.32-.09,6.04-.09-8.43-.18,5.47-.18-.63-.09,7.62-.09-9.03-.09-1.16-.09,4.37-.09,1.12-.18-6.52-.09-1.34-.09,10.91-.18-8.05-.09-.84-.09,2.53-.18-6.91-.09,4.75-.09-.57-.09,1.57-.09,3.01-.09-.51-.09,.17-.09,6.41-.09-14.45-.09,7.87-.09-6.18-.09,9.68-.09-7.17-.09,2.61-.09-3.46-.09,6.09-.18,5.06-.09-8.05-.09-.99-.09,2.77-.09-3.66-.09,5.58-.09-7.24-.09,2.4-.09,1.6-.09-6.81-.09,6.38-.09,1.9-.09-5.38-.09,3.09-.09-3.7-.09,5.07-.09-7.65-.09,14.3-.09-7.81-.18-1.16-.09,.64-.09,3.06-.09-1.58-.09-.83-.09-3.65-.09,5.21-.09-1.58-.09,4.31-.09-9.78-.09-.06-.09,4.11-.18-.85-.09,3.61-.09,.21-.09-2.35-.09,.89-.09-2.42-.09,6.49-.09-5.33-.09,4.6-.09-5.75-.09-1.78-.09,2.27-.09-.03-.09,1.17-.09-.14-.09,4.75-.09-4.83-.09,4.32-.09-9.26-.09,12.45-.09-9.94-.09,5.63-.09-6.14-.09,7.6-.27-6.27-.09,2.2-.09-1.08-.09,1.29-.09,4.14-.09-5.15-.09,.84-.09,6.09-.09-2.33-.09-1.55-.09-4.33-.18,6.41-.09-1.02-.09-4.24-.09,.15-.09-3.69-.09,7.71-.09-2.13-.09,3.03-.09-.56-.09-5.47-.09,5.23-.09-7.21-.09,6.92-.09-5.49-.09,7.98-.09-7.69-.09,4.35-.09-3.61-.18-3.8-.09,6.97-.09-3.35-.09,.73-.09,4.78-.09,.46-.09-9.26-.09,5.71-.09-2.36-.18,1.62-.09,.68-.09,2.73-.09-1.45-.09-.97-.09,.78-.09,.07-.09-3.76-.18,3.5-.09-4.42-.09,7.25-.09-1.25-.09,1.68-.09-11.38-.18,4.45-.09,.06-.09-1.45-.09,4.6-.09-1.4-.09,3.96-.09-2.03-.09-5.63-.09,.85-.09,1.19-.09,4.33-.09-2.18-.09,2.6-.18-4.21-.09,1.29-.09-2.06-.09,.78-.09,.27-.09-1.61-.09,4.23-.09,1.15-.09,.36-.09-6.95-.09-.76-.09,6.38-.09-2.59-.18-1.96-.09,4.55-.18,.11-.09-4.6-.09,4.47-.18-.99-.09-2.3-.09,2.84-.54-5-.09-1.63-.09,5.71-.09-1.23-.18-1.26-.09,4.65-.09-3.18-.09,1.43-.09-.93-.09-.09-.09,3.13-.09"/>
        <path class="cls-1" d="M445.39,101.64h55.64L468.98,13.5l-33.71,92.68h-4.84L468.98,.19l38.55,105.98h-62.14v-4.54Z"/>
        <path class="cls-1" d="M486.21,.19h59.87l-38.55,105.98L468.98,.19h4.84l33.71,92.68L539.58,4.72c-17.79,.03-35.58,.07-53.37,.1V.19Z"/>
      </g>
      <g>
        <path class="cls-1" d="M27.42,25.26l24.12,51.71h-5.58l-8.13-17.02H15.54l-8.06,17.02H1.72L26.16,25.26h1.27Zm-.65,10.99l-8.86,18.72h17.68l-8.82-18.72Z"/>
        <path class="cls-1" d="M58.75,38.72h4.92v6.86c1.97-2.62,4.15-4.59,6.54-5.89s4.99-1.95,7.8-1.95,5.4,.73,7.61,2.18,3.85,3.41,4.9,5.87,1.58,6.29,1.58,11.5v19.69h-4.92v-18.25c0-4.41-.18-7.35-.55-8.82-.57-2.53-1.66-4.44-3.28-5.71s-3.73-1.92-6.33-1.92c-2.98,0-5.64,.98-8,2.95-2.36,1.97-3.91,4.41-4.66,7.31-.47,1.9-.7,5.37-.7,10.41v14.03h-4.92V38.72Z"/>
        <path class="cls-1" d="M140.77,38.72v38.25h-4.85v-6.57c-2.06,2.51-4.38,4.39-6.94,5.66s-5.37,1.9-8.42,1.9c-5.41,0-10.04-1.96-13.87-5.89s-5.75-8.7-5.75-14.33,1.93-10.22,5.8-14.13,8.52-5.87,13.96-5.87c3.14,0,5.98,.67,8.53,2,2.54,1.34,4.78,3.34,6.7,6.01v-7.03h4.85Zm-19.67,3.76c-2.74,0-5.27,.67-7.58,2.02-2.32,1.35-4.16,3.24-5.53,5.67-1.37,2.43-2.05,5.01-2.05,7.73s.69,5.27,2.07,7.73c1.38,2.46,3.24,4.37,5.57,5.74,2.33,1.37,4.83,2.05,7.5,2.05s5.24-.68,7.66-2.04c2.41-1.36,4.27-3.2,5.57-5.51s1.95-4.93,1.95-7.83c0-4.42-1.46-8.12-4.37-11.1s-6.5-4.46-10.76-4.46Z"/>
        <path class="cls-1" d="M151.1,23.95h4.92v53.02h-4.92V23.95Z"/>
        <path class="cls-1" d="M184.36,37.74c5.89,0,10.78,2.13,14.65,6.4,3.52,3.89,5.28,8.5,5.28,13.82s-1.86,10.01-5.58,14.01c-3.72,4-8.51,5.99-14.35,5.99s-10.67-2-14.39-5.99c-3.72-4-5.58-8.67-5.58-14.01s1.76-9.89,5.28-13.78c3.87-4.29,8.77-6.43,14.69-6.43Zm-.02,4.82c-4.09,0-7.61,1.51-10.55,4.54-2.94,3.02-4.41,6.68-4.41,10.97,0,2.77,.67,5.34,2.01,7.73,1.34,2.39,3.15,4.24,5.43,5.54,2.28,1.3,4.79,1.95,7.51,1.95s5.23-.65,7.51-1.95c2.28-1.3,4.09-3.15,5.43-5.54,1.34-2.39,2.01-4.97,2.01-7.73,0-4.29-1.48-7.95-4.43-10.97-2.95-3.02-6.46-4.54-10.53-4.54Z"/>
        <path class="cls-1" d="M246.38,38.72h4.92v30.48c0,5.37-.47,9.29-1.41,11.78-1.29,3.52-3.53,6.22-6.71,8.12-3.19,1.9-7.02,2.85-11.5,2.85-3.28,0-6.23-.46-8.84-1.39-2.61-.93-4.74-2.17-6.38-3.74-1.64-1.56-3.15-3.85-4.54-6.86h5.34c1.45,2.53,3.33,4.41,5.63,5.62,2.3,1.22,5.15,1.83,8.55,1.83s6.19-.62,8.5-1.87c2.31-1.25,3.96-2.82,4.95-4.71,.99-1.89,1.48-4.95,1.48-9.16v-1.97c-1.85,2.34-4.12,4.14-6.79,5.4-2.67,1.25-5.51,1.88-8.52,1.88-3.52,0-6.83-.87-9.92-2.62s-5.49-4.1-7.18-7.05c-1.69-2.95-2.53-6.2-2.53-9.74s.88-6.84,2.64-9.9c1.76-3.06,4.19-5.48,7.3-7.26,3.11-1.78,6.39-2.67,9.84-2.67,2.86,0,5.53,.59,8.01,1.78,2.48,1.18,4.86,3.13,7.16,5.85v-6.64Zm-14.52,3.76c-2.79,0-5.38,.67-7.77,2.02s-4.27,3.21-5.62,5.59c-1.36,2.38-2.04,4.95-2.04,7.72,0,4.2,1.41,7.66,4.22,10.41s6.46,4.11,10.93,4.11,8.16-1.36,10.92-4.08c2.75-2.72,4.13-6.29,4.13-10.72,0-2.88-.63-5.46-1.9-7.72s-3.06-4.05-5.38-5.36-4.82-1.97-7.49-1.97Z"/>
        <path class="cls-1" d="M258.71,25.26h5.62l17.14,39.95,17.42-39.95h5.62l-22.5,51.71h-1.12l-22.18-51.71Z"/>
        <path class="cls-1" d="M313.24,76.97V25.26h1.12l34.42,39.64V25.26h5.1v51.71h-1.16l-34.14-39.16v39.16h-5.34Z"/>
        <path class="cls-1" d="M366.5,76.97V25.26h1.12l34.42,39.64V25.26h5.1v51.71h-1.16l-34.14-39.16v39.16h-5.34Z"/>
      </g>
    </g>
  </g>
</svg>